<mxfile host="app.diagrams.net" modified="2024-02-14T18:31:07.961Z" agent="Mozilla/5.0 (Windows NT 10.0; Win64; x64) AppleWebKit/537.36 (KHTML, like Gecko) Chrome/121.0.0.0 Safari/537.36 Edg/121.0.0.0" version="23.1.4" etag="dEnixahdrS5NOIQJCKwT" type="github">
  <diagram name="Page-1" id="GUYvFShdxd33Dfxl5hFL">
    <mxGraphModel>
      <root>
        <mxCell id="0" />
        <mxCell id="1" parent="0" />
      </root>
    </mxGraphModel>
  </diagram>
</mxfile>
